<svg width="20" height="21" viewBox="0 0 20 21" fill="none" xmlns="http://www.w3.org/2000/svg">
<path fill-rule="evenodd" clip-rule="evenodd" d="M5.24984 8C5.24984 8.41421 5.58562 8.75 5.99984 8.75C6.41405 8.75 6.74984 8.41421 6.74984 8V6.75H13.2498V8C13.2498 8.41421 13.5856 8.75 13.9998 8.75C14.4141 8.75 14.7498 8.41421 14.7498 8V6.75H15.7025C16.3413 6.75 16.8773 7.23166 16.9454 7.86683L18.0168 17.8668C18.096 18.6057 17.517 19.25 16.7739 19.25H3.22541C2.48236 19.25 1.90337 18.6057 1.98253 17.8668L3.05396 7.86683C3.12201 7.23166 3.65803 6.75 4.29684 6.75H5.24984V8ZM6.74984 5.25H13.2498V5C13.2498 3.20508 11.7948 1.75 9.99984 1.75C8.20491 1.75 6.74984 3.20507 6.74984 5V5.25ZM14.7498 5.25V5C14.7498 2.37665 12.6232 0.25 9.99984 0.25C7.37649 0.25 5.24984 2.37665 5.24984 5V5.25H4.29684C2.89146 5.25 1.71221 6.30965 1.56249 7.70703L0.491062 17.707C0.31691 19.3325 1.59069 20.75 3.22541 20.75H16.7739C18.4087 20.75 19.6824 19.3325 19.5083 17.707L18.4369 7.70703C18.2871 6.30965 17.1079 5.25 15.7025 5.25H14.7498Z" fill="#121219"/>
</svg>
