<svg width="16" height="16" viewBox="0 0 16 16" fill="none" xmlns="http://www.w3.org/2000/svg">
<path d="M15.5899 2.39005C16.1367 1.84329 16.1367 0.956825 15.5899 0.410068C15.0432 -0.136689 14.1567 -0.136689 13.6099 0.410068L8 6.02001L2.39006 0.410068C1.84331 -0.136688 0.956841 -0.136689 0.410085 0.410068C-0.136672 0.956825 -0.136671 1.84329 0.410085 2.39005L6.02002 7.99999L0.410067 13.6099C-0.136689 14.1567 -0.136689 15.0432 0.410067 15.5899C0.956824 16.1367 1.84329 16.1367 2.39005 15.5899L8 9.97997L13.61 15.5899C14.1567 16.1367 15.0432 16.1367 15.5899 15.5899C16.1367 15.0432 16.1367 14.1567 15.5899 13.61L9.97998 7.99999L15.5899 2.39005Z" fill="#9F9F9F"/>
</svg>
