<svg width="31" height="31" viewBox="0 0 31 31" fill="none" xmlns="http://www.w3.org/2000/svg">
<path d="M15.4999 18.2246C17.0015 18.2246 18.2306 17.0016 18.2306 15.494C18.2306 14.9006 18.0369 14.3496 17.716 13.9016C17.2195 13.2174 16.4142 12.7633 15.506 12.7633C14.5978 12.7633 13.7925 13.2114 13.296 13.9016C12.9751 14.3496 12.7814 14.9006 12.7814 15.494C12.7753 17.0016 13.9984 18.2246 15.4999 18.2246Z" fill="white"/>
<path d="M21.4578 12.1639V9.8752V9.53613H21.1188L18.8301 9.54219L18.8422 12.1699L21.4578 12.1639Z" fill="white"/>
<path d="M19.7383 15.5C19.7383 17.8371 17.8371 19.7383 15.5 19.7383C13.1629 19.7383 11.2617 17.8371 11.2617 15.5C11.2617 14.9369 11.3768 14.398 11.5766 13.9076H9.26367V20.2529C9.26367 21.0703 9.92969 21.7363 10.7471 21.7363H20.2529C21.0703 21.7363 21.7363 21.0703 21.7363 20.2529V13.9076H19.4234C19.6293 14.398 19.7383 14.9369 19.7383 15.5Z" fill="white"/>
<path d="M15.5 0C6.93867 0 0 6.93867 0 15.5C0 24.0613 6.93867 31 15.5 31C24.0613 31 31 24.0613 31 15.5C31 6.93867 24.0613 0 15.5 0ZM23.25 13.9076V20.2529C23.25 21.9059 21.9059 23.25 20.2529 23.25H10.7471C9.09414 23.25 7.75 21.9059 7.75 20.2529V13.9076V10.741C7.75 9.08809 9.09414 7.74394 10.7471 7.74394H20.2529C21.9059 7.74394 23.25 9.08809 23.25 10.741V13.9076Z" fill="white"/>
</svg>
