<svg width="277" height="44" viewBox="0 0 277 44" fill="none" xmlns="http://www.w3.org/2000/svg">
<path d="M0.937476 10.5625C0.937476 9.96875 0.921851 9.32812 0.890601 8.64062C0.859351 7.95312 0.906226 7.3125 1.03123 6.71875C1.18748 6.125 1.43748 5.64062 1.78123 5.26562C2.15623 4.85938 2.74998 4.65625 3.56248 4.65625C4.15623 5.46875 4.53123 6.48438 4.68748 7.70312C4.87498 8.89062 4.99998 10.1562 5.06248 11.5C5.12498 12.8125 5.18748 14.125 5.24998 15.4375C5.34373 16.75 5.60935 17.9062 6.04685 18.9062C6.0781 19.0312 6.21873 19.2188 6.46873 19.4688C6.74998 19.6875 6.93748 19.8281 7.03123 19.8906C7.96873 19.0781 8.81248 18.2344 9.56248 17.3594C10.3437 16.4844 11.1094 15.6406 11.8594 14.8281C12.6094 13.9844 13.3594 13.1875 14.1094 12.4375C14.8594 11.6875 15.6719 11.0312 16.5469 10.4688C17.4531 9.90625 18.4531 9.46875 19.5469 9.15625C20.6719 8.8125 21.9375 8.64062 23.3437 8.64062C23.3437 9.39062 23.0781 10.1406 22.5469 10.8906C22.0156 11.6406 21.3437 12.4062 20.5312 13.1875C19.7187 13.9375 18.8281 14.7188 17.8594 15.5312C16.8906 16.3125 15.9531 17.125 15.0469 17.9688C14.1406 18.7812 13.3281 19.6094 12.6094 20.4531C11.8906 21.2656 11.375 22.0938 11.0625 22.9375C11.5937 23.0625 12.4687 23.375 13.6875 23.875C14.9375 24.3438 16.3437 24.9375 17.9062 25.6562C19.5 26.3438 21.1406 27.0938 22.8281 27.9062C24.5156 28.7188 26.0625 29.5312 27.4687 30.3438C28.875 31.125 30.0156 31.875 30.8906 32.5938C31.7969 33.2812 32.25 33.8438 32.25 34.2812C32.25 34.375 32.25 34.5781 32.25 34.8906C32.25 35.1719 32.2187 35.4688 32.1562 35.7812C32.125 36.0938 32.0312 36.375 31.875 36.625C31.7187 36.8438 31.4687 36.9531 31.125 36.9531C29.8125 36.9219 28.5781 36.6875 27.4219 36.25C26.2656 35.7812 25.1406 35.2188 24.0469 34.5625C22.9531 33.875 21.8594 33.1719 20.7656 32.4531C19.7031 31.7031 18.6094 31 17.4844 30.3438C16.3594 29.6562 15.1875 29.1094 13.9687 28.7031C12.7812 28.2656 11.4844 28.0156 10.0781 27.9531C9.60935 28.7031 9.40623 29.4375 9.46873 30.1562C9.53123 30.8438 9.73435 31.5469 10.0781 32.2656C10.4531 32.9531 10.8906 33.6719 11.3906 34.4219C11.8906 35.1406 12.3281 35.9062 12.7031 36.7188C13.0781 37.5 13.3281 38.3281 13.4531 39.2031C13.5781 40.0781 13.4375 41 13.0312 41.9688C12.9687 42.0625 12.8437 42.1719 12.6562 42.2969C12.5 42.3906 12.3125 42.5 12.0937 42.625C11.9062 42.75 11.7031 42.8438 11.4844 42.9062C11.2656 42.9688 11.125 43 11.0625 43C10.6562 43 10.2031 42.6094 9.7031 41.8281C9.23435 41.0469 8.71873 39.9844 8.15623 38.6406C7.62498 37.2969 7.06248 35.7656 6.46873 34.0469C5.90623 32.2969 5.34373 30.5 4.78123 28.6562C4.24998 26.7812 3.74998 24.9062 3.28123 23.0312C2.84373 21.125 2.43748 19.3594 2.06248 17.7344C1.71873 16.0781 1.43748 14.625 1.21873 13.375C1.03123 12.125 0.937476 11.1875 0.937476 10.5625Z" fill="black"/>
<path d="M44.1562 1.84375C44.3437 1.28125 44.6094 0.953125 44.9531 0.859375C45.3281 0.765625 45.75 0.71875 46.2187 0.71875C46.9375 0.71875 47.7344 1.20312 48.6094 2.17188C49.5156 3.10938 50.4375 4.375 51.375 5.96875C52.3125 7.5625 53.25 9.39062 54.1875 11.4531C55.1562 13.5156 56.0781 15.6562 56.9531 17.875C57.8594 20.0625 58.7031 22.25 59.4844 24.4375C60.2656 26.625 60.9375 28.6406 61.5 30.4844C62.0937 32.2969 62.5469 33.875 62.8594 35.2188C63.1719 36.5625 63.3281 37.4844 63.3281 37.9844C63.3281 38.4844 63.2031 38.9688 62.9531 39.4375C62.7344 39.875 62.3281 40.0938 61.7344 40.0938C61.3594 40.0938 61.0312 39.9844 60.75 39.7656C60.5 39.5156 60.2812 39.2188 60.0937 38.875C59.9062 38.5312 59.7344 38.1875 59.5781 37.8438C59.4219 37.5 59.2812 37.2031 59.1562 36.9531C59.0312 36.6094 58.7656 35.9531 58.3594 34.9844C57.9844 34.0156 57.5781 33 57.1406 31.9375C56.7344 30.875 56.3437 29.875 55.9687 28.9375C55.5937 28 55.3281 27.3281 55.1719 26.9219C52.9844 26.5469 50.7812 26.2031 48.5625 25.8906C46.375 25.5469 44.0625 25.2188 41.625 24.9062H41.1094C39.9844 29.75 38.9844 33.5781 38.1094 36.3906C37.2656 39.2031 36.5469 41.2031 35.9531 42.3906C35.3906 43.5781 34.9375 44.0625 34.5937 43.8438C34.2812 43.6562 34.0625 42.9531 33.9375 41.7344C33.8437 40.4844 33.8594 38.8281 33.9844 36.7656C34.1406 34.7031 34.4062 32.4375 34.7812 29.9688C35.1875 27.4688 35.6719 24.8594 36.2344 22.1406C36.7969 19.4219 37.4687 16.7969 38.25 14.2656C39.0625 11.7344 39.9531 9.39062 40.9219 7.23438C41.9219 5.04688 43 3.25 44.1562 1.84375ZM43.0312 18.3438C43.0312 19.5 43.4062 20.3594 44.1562 20.9219C44.9062 21.4531 45.8125 21.7969 46.875 21.9531C47.9375 22.1094 49.0469 22.1719 50.2031 22.1406C51.3906 22.1094 52.4062 22.0938 53.25 22.0938C53.25 20.8438 53.0469 19.5 52.6406 18.0625C52.2344 16.5938 51.7187 15.1406 51.0937 13.7031C50.4687 12.2656 49.7969 10.875 49.0781 9.53125C48.3906 8.15625 47.75 6.92188 47.1562 5.82812C46.8125 6.17188 46.4375 6.8125 46.0312 7.75C45.6562 8.65625 45.2656 9.6875 44.8594 10.8438C44.4844 11.9688 44.1406 13.0781 43.8281 14.1719C43.5156 15.2656 43.2812 16.1562 43.125 16.8438C43.125 16.9375 43.1094 17.1875 43.0781 17.5938C43.0469 17.9688 43.0312 18.2188 43.0312 18.3438Z" fill="black"/>
<path d="M68.2969 40.9844C68.1719 40.4844 68 39.7656 67.7812 38.8281C67.5937 37.8906 67.375 36.8594 67.125 35.7344C66.9062 34.6094 66.6875 33.4375 66.4687 32.2188C66.25 30.9688 66.0469 29.7656 65.8594 28.6094C65.6719 27.4219 65.5156 26.3438 65.3906 25.375C65.2969 24.375 65.25 23.5625 65.25 22.9375C65.25 22.6562 65.2812 22.1719 65.3437 21.4844C65.4062 20.7969 65.5 20.0781 65.625 19.3281C65.75 18.5781 65.8594 17.875 65.9531 17.2188C66.0781 16.5625 66.1875 16.1094 66.2812 15.8594C66.375 15.8281 66.5312 15.8125 66.75 15.8125C67 15.8125 67.25 15.7969 67.5 15.7656C67.7812 15.7344 68.0312 15.7188 68.25 15.7188C68.5 15.6875 68.6719 15.6719 68.7656 15.6719C70.2656 15.6719 71.6875 15.9688 73.0312 16.5625C74.375 17.1562 75.6562 17.9062 76.875 18.8125C78.0937 19.7188 79.2812 20.7344 80.4375 21.8594C81.5937 22.9844 82.75 24.0781 83.9062 25.1406C85.0937 26.2031 86.2969 27.1719 87.5156 28.0469C88.7344 28.8906 90.0312 29.5312 91.4062 29.9688C91.4062 29.8125 91.4062 29.5781 91.4062 29.2656C91.4375 28.9219 91.4531 28.5625 91.4531 28.1875C91.4531 27.8125 91.4531 27.4688 91.4531 27.1562C91.4844 26.8125 91.5 26.5625 91.5 26.4062C91.5 24.4375 91.375 22.5156 91.125 20.6406C90.875 18.7656 90.5937 16.8906 90.2812 15.0156C89.9687 13.1406 89.6875 11.2656 89.4375 9.39062C89.1875 7.48438 89.0625 5.53125 89.0625 3.53125C89.2812 3.53125 89.5469 3.54688 89.8594 3.57812C90.2031 3.57812 90.5469 3.625 90.8906 3.71875C91.2344 3.78125 91.5469 3.90625 91.8281 4.09375C92.1094 4.25 92.2969 4.5 92.3906 4.84375C92.5156 7.09375 92.7969 9.35938 93.2344 11.6406C93.6719 13.8906 94.125 16.1562 94.5937 18.4375C95.0625 20.6875 95.4687 22.9531 95.8125 25.2344C96.1875 27.4844 96.375 29.7188 96.375 31.9375C96.375 32.3438 96.3594 32.7812 96.3281 33.25C96.3281 33.7188 96.2656 34.1719 96.1406 34.6094C96.0469 35.0156 95.875 35.3594 95.625 35.6406C95.375 35.9219 95 36.0625 94.5 36.0625C92.875 36.0625 91.375 35.7031 90 34.9844C88.625 34.2344 87.2812 33.3125 85.9687 32.2188C84.6875 31.125 83.4219 29.9219 82.1719 28.6094C80.9531 27.2969 79.6875 26.0938 78.375 25C77.0937 23.9062 75.75 22.9844 74.3437 22.2344C72.9687 21.4844 71.4844 21.1094 69.8906 21.1094C69.8906 22.8594 70.0156 24.5469 70.2656 26.1719C70.5156 27.7656 70.7812 29.3594 71.0625 30.9531C71.375 32.5469 71.6562 34.1406 71.9062 35.7344C72.1562 37.2969 72.2812 38.8906 72.2812 40.5156C72.2812 41.1094 72.0625 41.5156 71.625 41.7344C71.2187 41.9531 70.7656 42.0625 70.2656 42.0625C69.8594 42.0625 69.4687 42.0312 69.0937 41.9688C68.75 41.875 68.4844 41.5469 68.2969 40.9844Z" fill="black"/>
<path d="M116.531 14.875C116.406 14.4375 116.156 14.1406 115.781 13.9844C115.437 13.8281 115.047 13.75 114.609 13.75C114.203 13.7188 113.797 13.7344 113.391 13.7969C112.984 13.8594 112.672 13.8906 112.453 13.8906C111.922 13.8594 111 13.7969 109.687 13.7031C108.375 13.6094 106.953 13.5156 105.422 13.4219C103.922 13.2969 102.516 13.1875 101.203 13.0938C99.8906 12.9688 98.9687 12.8906 98.4375 12.8594C98.4375 12.7969 98.4219 12.6406 98.3906 12.3906C98.3594 12.1406 98.3437 11.9688 98.3437 11.875C98.3437 11.4375 98.375 11.0469 98.4375 10.7031C98.5312 10.3594 98.8437 10.0938 99.375 9.90625C102.312 9.96875 105.203 9.95312 108.047 9.85938C110.922 9.76562 113.781 9.64062 116.625 9.48438C119.5 9.29688 122.359 9.125 125.203 8.96875C128.078 8.8125 130.969 8.73438 133.875 8.73438C133.875 9.92188 133.594 10.7969 133.031 11.3594C132.469 11.8906 131.766 12.25 130.922 12.4375C130.109 12.625 129.203 12.7031 128.203 12.6719C127.203 12.6406 126.234 12.6562 125.297 12.7188C124.391 12.7812 123.578 12.9688 122.859 13.2812C122.172 13.5625 121.719 14.0938 121.5 14.875C121.469 15.0625 121.437 15.4219 121.406 15.9531C121.375 16.4844 121.344 17.0469 121.312 17.6406C121.312 18.2344 121.297 18.7969 121.266 19.3281C121.266 19.8281 121.266 20.1875 121.266 20.4062C121.266 22.1875 121.484 23.9531 121.922 25.7031C122.391 27.4219 122.891 29.1406 123.422 30.8594C123.984 32.5469 124.484 34.25 124.922 35.9688C125.391 37.6562 125.625 39.375 125.625 41.125C125.625 42.4375 124.875 43.0938 123.375 43.0938C122.469 43.0938 121.656 42.4688 120.937 41.2188C120.25 39.9688 119.641 38.375 119.109 36.4375C118.609 34.5 118.187 32.3906 117.844 30.1094C117.531 27.8281 117.266 25.6406 117.047 23.5469C116.859 21.4531 116.719 19.6094 116.625 18.0156C116.562 16.4219 116.531 15.375 116.531 14.875Z" fill="black"/>
<path d="M138.609 5.82812C138.453 5.82812 138.219 5.79688 137.906 5.73438C137.625 5.64062 137.328 5.54688 137.016 5.45312C136.703 5.32812 136.406 5.21875 136.125 5.125C135.844 5 135.656 4.90625 135.562 4.84375C135.531 4.78125 135.516 4.71875 135.516 4.65625C135.484 4.59375 135.469 4.51562 135.469 4.42188C135.469 3.98438 135.641 3.60938 135.984 3.29688C136.328 2.98438 136.719 2.73438 137.156 2.54688C137.625 2.32812 138.078 2.17188 138.516 2.07812C138.953 1.95312 139.297 1.875 139.547 1.84375H140.109H140.578C141.328 1.90625 142.281 2 143.437 2.125C144.594 2.25 145.812 2.39062 147.094 2.54688C148.406 2.67188 149.719 2.8125 151.031 2.96875C152.375 3.09375 153.578 3.23438 154.641 3.39062C155.734 3.51562 156.641 3.625 157.359 3.71875C158.109 3.78125 158.547 3.8125 158.672 3.8125C158.922 3.84375 159.234 3.90625 159.609 4C160.016 4.0625 160.422 4.1875 160.828 4.375C161.234 4.53125 161.609 4.73438 161.953 4.98438C162.297 5.20312 162.547 5.48438 162.703 5.82812C162.453 6.32812 162.234 6.71875 162.047 7C161.859 7.25 161.656 7.45312 161.437 7.60938C161.219 7.73438 160.984 7.79688 160.734 7.79688C160.516 7.79688 160.234 7.79688 159.891 7.79688C158.578 7.79688 157.25 7.75 155.906 7.65625C154.594 7.5625 153.281 7.46875 151.969 7.375C150.656 7.28125 149.328 7.1875 147.984 7.09375C146.672 7 145.344 6.95312 144 6.95312C144 7.51562 143.922 8.35938 143.766 9.48438C143.641 10.6094 143.531 11.7969 143.437 13.0469C143.375 14.2969 143.406 15.5469 143.531 16.7969C143.687 18.0156 144.047 19.0469 144.609 19.8906C145.703 19.2344 146.844 18.8906 148.031 18.8594C149.219 18.8281 150.422 18.8125 151.641 18.8125C152.172 18.8125 152.844 18.8125 153.656 18.8125C154.469 18.8125 155.25 18.9062 156 19.0938C156.781 19.2812 157.437 19.5938 157.969 20.0312C158.5 20.4688 158.766 21.125 158.766 22C158.766 22.625 158.641 23.0938 158.391 23.4062C158.141 23.7188 157.562 23.875 156.656 23.875C156.562 23.875 156.359 23.8281 156.047 23.7344C155.766 23.6406 155.453 23.5312 155.109 23.4062C154.797 23.2812 154.5 23.1719 154.219 23.0781C153.937 22.9844 153.75 22.9375 153.656 22.9375C153.625 22.9375 153.5 22.9375 153.281 22.9375C153.094 22.9062 152.859 22.8906 152.578 22.8906C152.297 22.8906 152.016 22.8906 151.734 22.8906C151.484 22.8594 151.281 22.8438 151.125 22.8438C150.406 22.8438 149.703 22.8906 149.016 22.9844C148.359 23.0781 147.781 23.2656 147.281 23.5469C146.781 23.8281 146.375 24.2344 146.062 24.7656C145.781 25.2969 145.641 25.9844 145.641 26.8281C145.641 27.1094 145.672 27.5938 145.734 28.2812C145.797 28.9688 145.875 29.7344 145.969 30.5781C146.094 31.3906 146.25 32.2344 146.437 33.1094C146.625 33.9844 146.875 34.7969 147.187 35.5469C147.5 36.2656 147.844 36.875 148.219 37.375C148.625 37.8438 149.109 38.0781 149.672 38.0781C149.734 38.0781 149.891 38.0625 150.141 38.0312C150.391 38 150.547 37.9844 150.609 37.9844C151.672 37.2656 152.734 36.4844 153.797 35.6406C154.891 34.7969 156.016 34.0156 157.172 33.2969C158.328 32.5469 159.531 31.9219 160.781 31.4219C162.031 30.8906 163.328 30.625 164.672 30.625V32.9219C164.672 33.0469 164.359 33.3906 163.734 33.9531C163.141 34.5156 162.344 35.1719 161.344 35.9219C160.375 36.6719 159.281 37.4688 158.062 38.3125C156.844 39.1562 155.625 39.9375 154.406 40.6562C153.187 41.3438 152.016 41.9219 150.891 42.3906C149.797 42.8594 148.875 43.0938 148.125 43.0938C147.062 43.0938 146.109 42.625 145.266 41.6875C144.453 40.7188 143.719 39.4531 143.062 37.8906C142.406 36.2969 141.859 34.4688 141.422 32.4062C140.984 30.3438 140.594 28.2188 140.25 26.0312C139.937 23.8438 139.672 21.6719 139.453 19.5156C139.266 17.3281 139.109 15.3125 138.984 13.4688C138.859 11.625 138.766 10.0312 138.703 8.6875C138.672 7.3125 138.641 6.35938 138.609 5.82812Z" fill="black"/>
<path d="M167.625 22.9375C167.625 22.5625 167.625 21.9531 167.625 21.1094C167.656 20.2344 167.672 19.3281 167.672 18.3906C167.672 17.4219 167.672 16.5156 167.672 15.6719C167.703 14.8281 167.719 14.2344 167.719 13.8906C167.75 13.6719 167.828 13.3438 167.953 12.9062C168.078 12.4375 168.219 11.9844 168.375 11.5469C168.562 11.1094 168.797 10.7344 169.078 10.4219C169.391 10.0781 169.766 9.90625 170.203 9.90625C171.234 9.90625 172.203 10.1875 173.109 10.75C174.016 11.3125 174.891 12.0625 175.734 13C176.578 13.9062 177.375 14.9219 178.125 16.0469C178.906 17.1719 179.672 18.2969 180.422 19.4219C181.172 20.5156 181.906 21.5625 182.625 22.5625C183.344 23.5312 184.062 24.3125 184.781 24.9062C185.562 24.5625 186.172 23.9375 186.609 23.0312C187.047 22.0938 187.406 21.0312 187.687 19.8438C187.969 18.625 188.219 17.375 188.437 16.0938C188.687 14.7812 189.016 13.5781 189.422 12.4844C189.828 11.3906 190.359 10.5 191.016 9.8125C191.703 9.09375 192.641 8.73438 193.828 8.73438C195.234 8.73438 196.5 9.28125 197.625 10.375C198.781 11.4688 199.812 12.8594 200.719 14.5469C201.625 16.2344 202.391 18.1094 203.016 20.1719C203.672 22.2344 204.219 24.2188 204.656 26.125C205.094 28.0312 205.422 29.75 205.641 31.2812C205.859 32.8125 205.969 33.9062 205.969 34.5625C205.969 34.8438 205.953 35.1562 205.922 35.5C205.891 35.8125 205.812 36.1094 205.687 36.3906C205.562 36.6406 205.359 36.8438 205.078 37C204.797 37.125 204.391 37.1094 203.859 36.9531C203.703 36.9219 203.516 36.8438 203.297 36.7188C203.109 36.5625 202.906 36.375 202.687 36.1562C202.469 35.9375 202.281 35.7344 202.125 35.5469C201.969 35.3281 201.891 35.1406 201.891 34.9844C201.609 33.4531 201.297 31.75 200.953 29.875C200.609 28 200.172 26.1094 199.641 24.2031C199.141 22.2656 198.5 20.3906 197.719 18.5781C196.937 16.7656 195.969 15.2031 194.812 13.8906C193.906 14.3906 193.187 15.1562 192.656 16.1875C192.156 17.1875 191.734 18.2969 191.391 19.5156C191.047 20.7031 190.734 21.9219 190.453 23.1719C190.172 24.4219 189.797 25.5625 189.328 26.5938C188.859 27.5938 188.266 28.4219 187.547 29.0781C186.828 29.7344 185.859 30.0625 184.641 30.0625C183.797 30.0625 182.969 29.7969 182.156 29.2656C181.375 28.7031 180.609 27.9844 179.859 27.1094C179.109 26.2031 178.375 25.2188 177.656 24.1562C176.969 23.0625 176.281 22 175.594 20.9688C174.937 19.9062 174.281 18.9219 173.625 18.0156C173 17.1094 172.359 16.3906 171.703 15.8594C171.453 16.8281 171.25 17.6875 171.094 18.4375C170.969 19.1562 170.859 19.8594 170.766 20.5469C170.703 21.2344 170.656 21.9375 170.625 22.6562C170.625 23.375 170.625 24.1719 170.625 25.0469C170.625 26.3594 170.734 27.6719 170.953 28.9844C171.172 30.2656 171.406 31.5469 171.656 32.8281C171.906 34.1094 172.141 35.4062 172.359 36.7188C172.609 38 172.734 39.2969 172.734 40.6094V40.9844C172.672 41.0781 172.547 41.2344 172.359 41.4531C172.172 41.6406 171.969 41.8438 171.75 42.0625C171.562 42.2812 171.359 42.4844 171.141 42.6719C170.922 42.8281 170.766 42.9375 170.672 43C170.641 43.0312 170.578 43.0469 170.484 43.0469C170.391 43.0781 170.297 43.0938 170.203 43.0938C170.141 43.0938 170.062 43.0781 169.969 43.0469C169.875 43.0156 169.797 43 169.734 43C169.516 41.1875 169.281 39.4688 169.031 37.8438C168.781 36.2188 168.547 34.6094 168.328 33.0156C168.141 31.4219 167.969 29.8125 167.812 28.1875C167.687 26.5625 167.625 24.8125 167.625 22.9375Z" fill="black"/>
<path d="M222.891 36.4844C222.891 34.8281 222.687 33.0312 222.281 31.0938C221.875 29.1562 221.437 27.1719 220.969 25.1406C220.5 23.1094 220.047 21.0938 219.609 19.0938C219.172 17.0625 218.937 15.1562 218.906 13.375H208.453C208.453 13.125 208.453 12.7656 208.453 12.2969C208.453 11.8281 208.5 11.3594 208.594 10.8906C208.687 10.3906 208.828 9.95312 209.016 9.57812C209.203 9.17188 209.484 8.92188 209.859 8.82812H235.641C235.609 9.82812 235.406 10.5938 235.031 11.125C234.656 11.6562 234.156 12.0625 233.531 12.3438C232.937 12.625 232.266 12.8125 231.516 12.9062C230.766 12.9688 230.016 13.0469 229.266 13.1406C228.516 13.2344 227.781 13.3594 227.062 13.5156C226.344 13.6406 225.719 13.9062 225.187 14.3125C224.687 14.7188 224.297 15.2812 224.016 16C223.766 16.6875 223.703 17.625 223.828 18.8125C223.828 19.4688 223.875 20.3438 223.969 21.4375C224.062 22.5 224.219 23.6562 224.437 24.9062C224.656 26.1562 224.937 27.4219 225.281 28.7031C225.625 29.9531 226.047 31.1094 226.547 32.1719C227.078 33.2031 227.672 34.0469 228.328 34.7031C229.016 35.3281 229.812 35.6406 230.719 35.6406C231.344 35.7031 232.141 35.7188 233.109 35.6875C234.109 35.625 235.109 35.5781 236.109 35.5469C237.109 35.5156 238.047 35.5312 238.922 35.5938C239.828 35.6562 240.484 35.8438 240.891 36.1562C241.297 36.4688 241.391 36.9375 241.172 37.5625C240.953 38.1562 240.266 38.9688 239.109 40C237.109 40.75 235.078 41.2656 233.016 41.5469C230.984 41.7969 228.937 41.9375 226.875 41.9688C224.812 41.9688 222.75 41.9375 220.687 41.875C218.625 41.7812 216.578 41.7344 214.547 41.7344C213.391 40.3281 212.703 39.25 212.484 38.5C212.266 37.75 212.344 37.2344 212.719 36.9531C213.125 36.6406 213.75 36.4844 214.594 36.4844C215.469 36.4531 216.406 36.4844 217.406 36.5781C218.406 36.6406 219.406 36.7031 220.406 36.7656C221.406 36.7969 222.234 36.7031 222.891 36.4844Z" fill="black"/>
<path d="M243.891 9.90625C243.891 9.65625 243.906 9.25 243.937 8.6875C243.937 8.09375 243.937 7.48438 243.937 6.85938C243.937 6.20312 243.953 5.59375 243.984 5.03125C243.984 4.4375 243.984 4.03125 243.984 3.8125C244.328 3.15625 244.859 2.6875 245.578 2.40625C246.328 2.09375 247.125 1.89062 247.969 1.79688C248.844 1.67188 249.687 1.625 250.5 1.65625C251.344 1.6875 252.031 1.70312 252.562 1.70312C253.25 1.70312 254.047 1.73438 254.953 1.79688C255.891 1.85938 256.812 1.98438 257.719 2.17188C258.656 2.32812 259.578 2.57812 260.484 2.92188C261.391 3.23438 262.187 3.65625 262.875 4.1875C263.594 4.6875 264.156 5.3125 264.562 6.0625C265 6.78125 265.219 7.64062 265.219 8.64062C265.219 9.82812 264.937 10.9062 264.375 11.875C263.812 12.8125 263.109 13.7031 262.266 14.5469C261.453 15.3594 260.547 16.125 259.547 16.8438C258.578 17.5625 257.672 18.2656 256.828 18.9531C256.016 19.6406 255.328 20.3438 254.766 21.0625C254.203 21.7812 253.922 22.5625 253.922 23.4062C253.922 23.4688 253.937 23.5625 253.969 23.6875C254.031 23.7812 254.062 23.8438 254.062 23.875C257.75 24.9688 261.328 26.2969 264.797 27.8594C268.297 29.4219 271.734 31.1094 275.109 32.9219C275.203 32.9844 275.297 33.1094 275.391 33.2969C275.516 33.4531 275.625 33.6562 275.719 33.9062C275.812 34.125 275.906 34.3281 276 34.5156C276.094 34.7031 276.141 34.8594 276.141 34.9844C276.141 35.2656 276.062 35.4844 275.906 35.6406C275.75 35.7656 275.562 35.875 275.344 35.9688C275.125 36.0312 274.906 36.0625 274.687 36.0625C274.469 36.0625 274.281 36.0625 274.125 36.0625C272.437 36.0625 270.75 35.7031 269.062 34.9844C267.406 34.2344 265.734 33.4062 264.047 32.5C262.359 31.5938 260.641 30.7656 258.891 30.0156C257.172 29.2656 255.375 28.8906 253.5 28.8906H252C252.5 30.0469 252.937 31.0781 253.312 31.9844C253.719 32.8906 254.047 33.7656 254.297 34.6094C254.578 35.4531 254.781 36.3125 254.906 37.1875C255.062 38.0312 255.141 38.9531 255.141 39.9531C255.141 40.1719 255.141 40.4375 255.141 40.75C255.141 41.0312 255.125 41.3281 255.094 41.6406C255.062 41.9531 254.969 42.2344 254.812 42.4844C254.656 42.7344 254.406 42.9062 254.062 43C252.781 42.25 251.625 41.0938 250.594 39.5312C249.594 37.9375 248.719 36.125 247.969 34.0938C247.219 32.0625 246.578 29.9062 246.047 27.625C245.547 25.3438 245.125 23.1094 244.781 20.9219C244.469 18.7031 244.234 16.6406 244.078 14.7344C243.953 12.7969 243.891 11.1875 243.891 9.90625ZM247.922 12.8594C247.922 13.2656 247.891 13.7969 247.828 14.4531C247.797 15.0781 247.797 15.7344 247.828 16.4219C247.859 17.0781 247.953 17.7188 248.109 18.3438C248.297 18.9375 248.594 19.4531 249 19.8906C249.062 19.9219 249.125 19.9375 249.187 19.9375C249.219 19.9688 249.297 19.9844 249.422 19.9844C249.984 19.9844 250.656 19.8125 251.437 19.4688C252.25 19.125 253.094 18.6719 253.969 18.1094C254.844 17.5469 255.703 16.9062 256.547 16.1875C257.422 15.4375 258.203 14.6719 258.891 13.8906C259.578 13.1094 260.125 12.3281 260.531 11.5469C260.969 10.7344 261.187 10 261.187 9.34375C261.187 8.71875 260.953 8.1875 260.484 7.75C260.016 7.28125 259.453 6.90625 258.797 6.625C258.141 6.34375 257.453 6.14062 256.734 6.01562C256.047 5.89062 255.484 5.82812 255.047 5.82812C254.516 5.82812 253.891 5.82812 253.172 5.82812C252.453 5.79688 251.734 5.84375 251.016 5.96875C250.328 6.0625 249.703 6.25 249.141 6.53125C248.578 6.8125 248.187 7.23438 247.969 7.79688C247.969 7.98438 247.969 8.3125 247.969 8.78125C247.969 9.25 247.969 9.76562 247.969 10.3281C247.969 10.8594 247.953 11.3594 247.922 11.8281C247.922 12.2969 247.922 12.6406 247.922 12.8594Z" fill="black"/>
</svg>
