<svg viewBox="0 0 32 31" fill="none" xmlns="http://www.w3.org/2000/svg">
<path d="M15.5217 0C12.4562 0 9.45935 0.909055 6.91039 2.61221C4.36144 4.31537 2.37476 6.73614 1.20161 9.56839C0.0284507 12.4006 -0.278508 15.5172 0.31956 18.5238C0.917627 21.5306 2.39387 24.2924 4.56158 26.4602C6.72929 28.6279 9.49112 30.1041 12.4979 30.7022C15.5045 31.3003 18.6211 30.9932 21.4534 29.82C24.2856 28.6469 26.7063 26.6604 28.4096 24.1114C30.1127 21.5624 31.0217 18.5657 31.0217 15.5C31.0217 11.3891 29.3886 7.44666 26.482 4.53985C23.5751 1.63302 19.6325 0 15.5217 0ZM23.1361 10.6175L20.598 22.6106C20.4042 23.4631 19.9005 23.6569 19.1836 23.2694L15.3086 20.4019L13.3711 22.2037C13.2798 22.3229 13.1626 22.4198 13.0284 22.487C12.8941 22.554 12.7463 22.5897 12.5961 22.5912L12.8674 18.7162L20.0361 12.2256C20.3655 11.9544 20.0361 11.7994 19.5711 12.0706L10.7749 17.5925L6.89985 16.3912C6.06673 16.1394 6.04735 15.5581 7.07423 15.1706L22.0124 9.35812C22.7486 9.14499 23.3686 9.57124 23.1361 10.6175Z" fill="white"/>
</svg>
