<svg viewBox="0 0 31 31" fill="none" xmlns="http://www.w3.org/2000/svg">
<path fill-rule="evenodd" clip-rule="evenodd" d="M24.5226 21.8877C24.149 22.9451 22.6641 23.8199 21.4799 24.0757C20.6693 24.2478 19.6121 24.384 16.0502 22.9079C12.0497 21.2505 6.4945 15.3465 6.4945 11.4176C6.4945 9.41752 7.6477 7.08853 9.66425 7.08853C10.6346 7.08853 10.8485 7.10745 11.1678 7.87336C11.5413 8.77574 12.4527 10.999 12.5612 11.2269C13.0092 12.1618 12.1055 12.7091 11.4498 13.5231C11.2406 13.7681 11.0035 14.033 11.2685 14.4889C11.532 14.9354 12.4434 16.4208 13.7826 17.6131C15.5124 19.1543 16.9151 19.6463 17.4173 19.8556C17.7909 20.0106 18.2373 19.9745 18.5101 19.683C18.8558 19.3094 19.2851 18.6894 19.7222 18.0785C20.0306 17.6413 20.4228 17.5867 20.8336 17.7417C21.111 17.8379 24.6372 19.4755 24.786 19.7375C24.8961 19.9282 24.8961 20.8303 24.5226 21.8877ZM15.5031 0H15.4953C6.95019 0 0 6.95229 0 15.5C0 18.8893 1.09276 22.0338 2.95121 24.5843L1.01991 30.3438L6.97656 28.4404C9.42711 30.0622 12.3519 31 15.5031 31C24.0482 31 31 24.0477 31 15.5C31 6.95229 24.0482 0 15.5031 0Z" fill="white"/>
</svg>
